# xmcd
#
# Track frame offsets:
#	150
#	16119
#	31128
#	46253
#	58856
#	76333
#	98185
#	117534
#	133002
#	149911
#
# Disc length: 2256 seconds
#
# Revision: 0
# Processed by: cddbd v1.5.2PL0 Copyright (c) Steve Scherf et al.
# Submitted via: EasyCDDAExtractor 12.0.1.1
#
DISCID=8908ce0a
DTITLE=Alvaro Torres - 3 Momentos De Coleccion - CD 3
DYEAR=2004
DGENRE=Latin
TTITLE0=Cuatro
TTITLE1=Se Acabo
TTITLE2=Estoy Enamorado De Ti
TTITLE3=Corazones Al Desnudo
TTITLE4=Vuelve Por Favor
TTITLE5=Me Duele A Morir
TTITLE6=Contigo Si
TTITLE7=Mujer De Nieve
TTITLE8=Con Todo Mi Amor
TTITLE9=Amor Del Alma
EXTD=
EXTT0=
EXTT1=
EXTT2=
EXTT3=
EXTT4=
EXTT5=
EXTT6=
EXTT7=
EXTT8=
EXTT9=
PLAYORDER=
